#!OML:ASF F:\VICON\USERDATA\INSTALL\rory3\rory3.ASF
:FULLY-SPECIFIED
:DEGREES
459
root -2.15156 18.0346 5.82472 188.886 100.322 -172.18
lowerback 22.8553 1.29096 2.74151
upperback 2.78258 3.36844 6.29688
thorax -9.97076 1.75811 4.36405
lowerneck -12.2472 -4.05796 -4.22265
upperneck 21.8731 -3.15258 -5.13936
head 8.87741 -2.21693 -1.36953
rclavicle 1.19271e-014 0
rhumerus -34.688 -33.6978 -58.7421
rradius 51.1396
rwrist -43.1559
rhand -21.1385 -9.33828
rfingers 7.12502
rthumb 5.24059 -39.2535
lclavicle 1.19271e-014 0
lhumerus -47.4246 2.69524 88.6527
lradius 59.8042
lwrist 2.8003
lhand -12.7408 48.4684
lfingers 7.12502
lthumb 13.343 78.0212
rfemur -16.6779 -1.24054 21.4394
rtibia 37.4456
rfoot -20.2001 -10.2608
rtoes 23.4801
lfemur -19.6678 -10.9198 -21.1768
ltibia 31.8264
lfoot -9.41552 -4.5476
ltoes -2.67771
460
root -2.1348 18.0268 5.81807 189.299 100.669 -171.861
lowerback 22.7301 1.1249 2.43933
upperback 2.81895 3.05778 6.25861
thorax -9.85458 1.62152 4.59309
lowerneck -12.2791 -3.94878 -4.24233
upperneck 21.7991 -2.99747 -5.1696
head 8.85929 -2.15044 -1.3587
rclavicle 3.02153e-014 -4.45278e-014
rhumerus -35.7555 -33.5752 -58.6808
rradius 52.7839
rwrist -46.1302
rhand -21.093 -9.92468
rfingers 7.12502
rthumb 5.28456 -39.8388
lclavicle 3.02153e-014 -4.45278e-014
lhumerus -47.8556 3.41773 88.0623
lradius 59.3908
lwrist 2.25254
lhand -11.9858 48.1236
lfingers 7.12502
lthumb 14.0707 77.6273
rfemur -16.8536 -1.71159 21.2506
rtibia 37.5741
rfoot -19.8354 -9.73912
rtoes 20.2536
lfemur -19.6323 -11.4609 -21.3292
ltibia 31.8416
lfoot -9.70495 -3.45326
ltoes -3.67776
461
root -2.10928 18.0247 5.84979 189.674 101.215 -171.31
lowerback 22.7888 1.15817 1.69489
upperback 2.89098 2.90508 6.20668
thorax -9.8263 1.57507 5.01271
lowerneck -12.2222 -3.88031 -4.19677
upperneck 21.7632 -2.93675 -5.1117
head 8.83614 -2.11309 -1.3379
rclavicle 3.26007e-014 8.42847e-014
rhumerus -36.9525 -33.3592 -58.5772
rradius 54.3
rwrist -49.0063
rhand -21.0118 -10.3945
rfingers 7.12502
rthumb 5.36296 -40.3066
lclavicle 3.26007e-014 8.42847e-014
lhumerus -48.3338 4.07725 87.4519
lradius 58.9427
lwrist 1.96356
lhand -12.3523 48.5703
lfingers 7.12502
lthumb 13.7175 78.0982
rfemur -16.6312 -2.86962 21.0782
rtibia 37.6875
rfoot -19.6198 -8.53942
rtoes 17.0725
lfemur -19.1656 -10.6004 -21.5788
ltibia 31.8346
lfoot -10.0725 -3.48057
ltoes -5.13398
462
root -2.08803 18.0244 5.84967 189.848 101.712 -171.154
lowerback 23.0524 1.09918 1.79689
upperback 2.64545 2.82488 5.87565
thorax -10.2137 1.51796 4.61015
lowerneck -11.991 -3.9281 -4.29436
upperneck 21.9029 -3.09149 -4.67392
head 8.84819 -2.14887 -1.18841
rclavicle 2.38542e-015 2.8625e-014
rhumerus -38.6873 -33.359 -58.3234
rradius 55.8694
rwrist -51.3534
rhand -20.8561 -10.5313
rfingers 7.12502
rthumb 5.51329 -40.4396
lclavicle 2.38542e-015 2.8625e-014
lhumerus -49.0938 4.46162 86.7473
lradius 58.5199
lwrist 1.91114
lhand -13.2269 49.4961
lfingers 7.12502
lthumb 12.8745 79.079
rfemur -16.6739 -3.0024 20.9518
rtibia 37.8338
rfoot -19.7291 -8.0573
rtoes 16.9595
lfemur -19.0218 -9.96034 -21.7795
ltibia 31.8366
lfoot -10.2308 -3.34426
ltoes -4.2676
463
root -2.06008 18.0218 5.82832 189.454 102.184 -171.548
lowerback 22.9505 0.956125 1.75037
upperback 2.70241 2.61605 5.87076
thorax -10.0805 1.42062 4.69672
lowerneck -12.099 -3.91765 -4.58679
upperneck 21.8731 -3.06462 -4.45985
head 8.86918 -2.14161 -1.06743
rclavicle 7.15625e-015 9.54166e-015
rhumerus -39.5241 -33.2823 -58.1302
rradius 57.2401
rwrist -53.3551
rhand -20.0648 -11.0574
rfingers 7.12502
rthumb 6.27727 -40.9444
lclavicle 7.15625e-015 9.54166e-015
lhumerus -49.5239 5.01016 86.5676
lradius 58.2228
lwrist 2.2281
lhand -13.4832 49.828
lfingers 7.12502
lthumb 12.6274 79.4263
rfemur -16.7339 -2.98299 20.8191
rtibia 37.9889
rfoot -19.8001 -7.63741
rtoes 17.941
lfemur -18.8083 -10.2924 -21.9433
ltibia 31.7319
lfoot -10.4228 -2.12299
ltoes -3.24525
464
root -2.01921 18.0149 5.79087 188.601 102.654 -172.338
lowerback 22.814 0.741477 2.09332
upperback 2.80822 2.4027 5.82091
thorax -9.85565 1.30431 4.50591
lowerneck -12.1707 -4.00792 -4.93478
upperneck 21.8304 -3.17605 -4.20907
head 8.88099 -2.199 -0.939507
rclavicle 0 1.43125e-014
rhumerus -40.4485 -33.4086 -57.7566
rradius 58.9501
rwrist -55.1562
rhand -18.902 -13.4733
rfingers 7.12502
rthumb 7.39975 -43.3239
lclavicle 0 1.43125e-014
lhumerus -49.947 5.19272 86.5345
lradius 58.0619
lwrist 2.96799
lhand -13.5304 49.8954
lfingers 7.12502
lthumb 12.5819 79.4966
rfemur -16.7827 -4.38433 20.5427
rtibia 38.1037
rfoot -19.5443 -5.62675
rtoes 19.3901
lfemur -18.4633 -11.3933 -22.1149
ltibia 31.5952
lfoot -10.6122 -0.321042
ltoes -3.80839
465
root -1.99777 18.0147 5.80326 190.687 103.208 -169.832
lowerback 22.9825 0.704572 0.990652
upperback 2.9795 2.06432 5.71241
thorax -9.76126 1.18208 5.1273
lowerneck -12.1231 -4.00093 -5.0205
upperneck 21.6652 -3.16556 -4.21323
head 8.8177 -2.20089 -0.922078
rclavicle -2.78299e-014 -3.33958e-014
rhumerus -41.0636 -33.2377 -57.7094
rradius 60.3864
rwrist -56.7768
rhand -17.8498 -14.955
rfingers 7.12502
rthumb 8.41532 -44.7674
lclavicle -2.78299e-014 -3.33958e-014
lhumerus -50.292 5.75163 86.3285
lradius 57.7281
lwrist 3.67595
lhand -13.9824 50.1787
lfingers 7.12502
lthumb 12.1461 79.8061
rfemur -16.4032 -3.96459 19.7993
rtibia 38.2293
rfoot -19.817 -5.29366
rtoes 21.2723
lfemur -17.8019 -11.1284 -22.929
ltibia 31.469
lfoot -10.7421 -0.124344
ltoes -3.5422
